# xmcd
#
# Track frame offsets: 
#        150
#        10627
#        19901
#        31091
#        42904
#        52261
#        62664
#        72240
#        81587
#        93922
#        106264
#        116686
#        126278
#        135866
#        150934
#        161131
#        171485
#        184503
#        197084
#        209201
#        218996
#        229320
#        240534
#        250169
#        259606
#        270714
#        280196
#        291171
#        301660
#        311892
#        323390
#        333346
#
# Disc length: 4594 seconds
#
# Revision: 2
# Processed by: cddbd v1.5.2PL0 Copyright (c) Steve Scherf et al.
# Submitted via: ExactAudioCopyFreeDBPlugin 1.0
#
DISCID=cc11f020
DTITLE=Faron Young - The Classic Years - 1952-1962 - CD 02
DYEAR=1999
DGENRE=Country
TTITLE0=Live Fast, Love Hard, Die Young
TTITLE1=Go Back, You Fool
TTITLE2=All Right
TTITLE3=For The Love Of A Woman Like You
TTITLE4=It's A Great Life {If You Don't Weaken}
TTITLE5=Better Things Than These
TTITLE6=I've Got Five Dollars And It's Saturday Night
TTITLE7=Turn Her Down
TTITLE8=You're Still Mine
TTITLE9=Sweet Dreams
TTITLE10=Until I Met You
TTITLE11=I'm Gonna Live Some Before I Die
TTITLE12=Candy Kisses
TTITLE13=Have I Told You Lately That I Love You
TTITLE14=I'll Be Satisfied With Love
TTITLE15=I Can't Help It {If I'm Still In Love With You}
TTITLE16=Your Cheatin' Heart
TTITLE17=I'll Be Yours
TTITLE18=Sweethearts Or Strangers
TTITLE19=Shame On You
TTITLE20=Worried Mind
TTITLE21=I Miss You Already {And You're Not Even Gone}
TTITLE22=I'm A Poor Boy
TTITLE23=You Call Everybody Darlin'
TTITLE24=You Are My Sunshine
TTITLE25=I'm Gonna Live Some Before I Die
TTITLE26=Moonlight Mountain
TTITLE27=Anything Your Heart Desires
TTITLE28=Vacation's Over
TTITLE29=The Shrine Of St. Cecilia
TTITLE30=Love Has Finally Come My Way
TTITLE31=The Face Of Love
EXTD=
EXTT0=
EXTT1=
EXTT2=
EXTT3=
EXTT4=
EXTT5=
EXTT6=
EXTT7=
EXTT8=
EXTT9=
EXTT10=
EXTT11=
EXTT12=
EXTT13=
EXTT14=
EXTT15=
EXTT16=
EXTT17=
EXTT18=
EXTT19=
EXTT20=
EXTT21=
EXTT22=
EXTT23=
EXTT24=
EXTT25=
EXTT26=
EXTT27=
EXTT28=
EXTT29=
EXTT30=
EXTT31=
PLAYORDER=
